<?xml version="1.0" standalone="no"?>
<!DOCTYPE svg PUBLIC "-//W3C//DTD SVG 20010904//EN"
 "http://www.w3.org/TR/2001/REC-SVG-20010904/DTD/svg10.dtd">
<svg version="1.0" xmlns="http://www.w3.org/2000/svg"
 width="512.000000pt" height="512.000000pt" viewBox="0 0 512.000000 512.000000"
 preserveAspectRatio="xMidYMid meet">
<metadata>
Created by potrace 1.14, written by Peter Selinger 2001-2017
</metadata>
<g transform="translate(0.000000,512.000000) scale(0.100000,-0.100000)"
fill="#000000" stroke="none">
<path d="M2425 4590 c-800 -90 -1474 -639 -1724 -1405 -77 -235 -107 -454 -98
-710 6 -174 22 -286 62 -439 31 -119 37 -108 -114 -203 -310 -193 -460 -340
-461 -451 0 -67 42 -113 121 -131 57 -13 80 -2 164 78 84 80 135 116 230 163
91 46 238 94 242 81 9 -27 93 -157 156 -243 83 -111 250 -287 357 -373 400
-323 935 -490 1438 -449 649 54 1210 384 1565 922 75 114 171 304 209 413 l23
67 41 0 c149 0 223 119 159 254 -10 21 -39 61 -65 89 l-47 52 9 95 c5 52 7
145 5 206 l-5 112 61 6 c164 18 245 66 273 163 30 102 -7 243 -78 296 -63 49
-112 61 -246 62 l-124 0 -32 80 c-265 652 -851 1122 -1554 1246 -133 24 -435
34 -567 19z m353 -120 c710 -54 1310 -465 1611 -1101 62 -131 66 -145 46 -153
-9 -3 -82 -15 -162 -27 -244 -35 -299 -16 -329 116 -47 205 -82 273 -174 336
-113 77 -241 94 -339 44 -70 -35 -131 -98 -210 -215 -91 -134 -128 -178 -176
-206 -65 -38 -171 -30 -191 15 -4 9 -10 81 -14 161 -5 118 -10 152 -27 185
-40 76 -97 106 -207 107 -91 0 -164 -27 -249 -93 -109 -84 -150 -138 -439
-579 -83 -126 -180 -229 -186 -197 -2 10 1 63 7 118 22 204 9 298 -52 357 -55
53 -118 63 -222 37 -190 -49 -328 -177 -389 -363 -33 -100 -41 -137 -76 -365
-46 -291 -88 -430 -172 -560 -37 -59 -37 -59 -68 91 -74 367 -33 771 116 1123
94 223 226 419 404 600 279 282 607 459 1003 540 85 17 148 24 342 38 11 0 80
-4 153 -9z m756 -1257 c0 -64 -5 -82 -43 -159 -34 -68 -60 -103 -124 -167 -45
-44 -104 -98 -132 -120 -27 -22 -41 -37 -30 -34 179 55 623 132 995 173 124
13 251 27 283 31 58 6 59 6 55 -18 -3 -22 -10 -25 -93 -37 -267 -38 -449 -69
-715 -123 -300 -60 -458 -96 -429 -98 25 -2 224 -69 319 -108 118 -49 365
-176 423 -219 47 -34 56 -56 25 -62 -8 -2 -53 20 -99 48 -225 138 -468 228
-717 265 -129 20 -235 6 -506 -67 l-79 -21 59 -22 c193 -73 439 -237 633 -422
61 -59 64 -64 49 -79 -16 -16 -23 -12 -115 58 -258 198 -521 345 -713 397
l-65 18 -99 -34 c-223 -77 -682 -272 -669 -283 5 -4 40 -15 78 -25 94 -24 245
-80 330 -123 136 -68 305 -199 305 -236 0 -29 -32 -26 -73 7 -138 110 -357
207 -613 271 -189 48 -162 53 -401 -68 -134 -67 -217 -104 -228 -100 -23 9
-38 53 -24 70 6 7 58 39 115 71 102 57 105 59 135 121 50 103 63 185 63 382 0
120 -6 204 -17 268 -22 120 -22 124 5 120 18 -2 27 -17 45 -75 46 -149 58
-230 58 -403 0 -142 -3 -173 -21 -222 -12 -32 -20 -58 -18 -58 1 0 42 18 91
41 48 22 207 90 353 150 146 61 276 120 289 132 32 30 92 120 130 194 53 107
75 202 75 336 0 113 1 118 20 115 36 -5 50 -67 51 -213 0 -147 -17 -214 -81
-320 -19 -32 -33 -60 -31 -61 2 -2 50 12 108 32 57 19 160 51 229 70 210 59
422 185 580 343 104 104 160 195 181 290 9 45 14 52 32 49 20 -3 22 -9 21 -75z
m1036 -663 c0 -79 -4 -140 -9 -140 -5 0 -41 31 -80 69 -79 76 -89 105 -47 144
26 25 104 67 124 67 9 0 12 -35 12 -140z m-708 -431 c43 -11 189 -55 324 -99
135 -44 251 -80 259 -80 26 0 25 -18 -11 -106 -146 -364 -408 -680 -749 -904
-181 -118 -424 -216 -657 -266 -169 -35 -468 -45 -638 -20 -562 83 -1030 375
-1342 841 l-81 120 34 7 c84 17 344 30 484 25 357 -15 565 -63 875 -200 190
-84 209 -90 289 -85 125 7 219 80 229 177 7 72 -26 132 -143 264 -89 101 -107
127 -87 127 31 0 189 -51 354 -114 373 -142 524 -181 668 -174 93 5 145 25
192 75 86 91 60 182 -97 334 -52 51 -95 97 -95 103 0 12 96 0 192 -25z"/>
</g>
</svg>
